# xmcd
#
# Track frame offsets:
#	150
#	31262
#	41842
#	74040
#	87407
#	104052
#	116320
#	131927
#	148877
#	167780
#	188915
#	206815
#	230397
#
# Disc length: 3734 seconds
#
# Revision: 1
# Processed by: cddbd v1.5.1PL0 Copyright (c) Steve Scherf et al.
# Submitted via: EasyCDDAExtractor 7.1.0.1
#
DISCID=cc0e940d
DTITLE=Chosen Few - Soaring Over Branson
DYEAR=1900
DGENRE=
TTITLE0=We've come here to worship and pray
TTITLE1=The Fourth Man
TTITLE2=The Baptist National Anthem
TTITLE3=Keep it in the middle of the road
TTITLE4=Miracles
TTITLE5=Anchors aweigh
TTITLE6=Moses Come over here
TTITLE7=Testimony
TTITLE8=Hallelujah Square
TTITLE9=Piano Solo
TTITLE10=How Great Thou Art
TTITLE11=Angels Among Us
TTITLE12=Go Jonah
EXTD=
EXTT0=
EXTT1=
EXTT2=
EXTT3=
EXTT4=
EXTT5=
EXTT6=
EXTT7=
EXTT8=
EXTT9=
EXTT10=
EXTT11=
EXTT12=
PLAYORDER=
